<svg width="98" height="73" viewBox="0 0 98 73" fill="none" xmlns="http://www.w3.org/2000/svg">
<path d="M1.581 63.1773C1.581 63.676 1.77367 64.1407 2.159 64.5713C2.55567 64.9907 3.03167 65.3647 3.587 65.6933C4.15367 66.0107 4.71467 66.3393 5.27 66.6793C5.82533 67.008 6.29567 67.416 6.681 67.9033C7.07767 68.3907 7.276 68.929 7.276 69.5183C7.276 70.4477 6.93033 71.207 6.239 71.7963C5.559 72.3857 4.63533 72.6803 3.468 72.6803C2.30067 72.6803 1.14467 72.4593 0 72.0173V71.2183C1.156 71.7963 2.13633 72.0853 2.941 72.0853C3.757 72.0853 4.39167 71.887 4.845 71.4903C5.29833 71.0937 5.525 70.544 5.525 69.8413C5.525 69.3653 5.338 68.9347 4.964 68.5493C4.59 68.1527 4.13667 67.8127 3.604 67.5293C3.07133 67.2347 2.53867 66.9343 2.006 66.6283C1.47333 66.3223 1.02 65.937 0.646 65.4723C0.272 64.9963 0.0849999 64.424 0.0849999 63.7553C0.0849999 63.0867 0.379667 62.4633 0.969 61.8853C1.56967 61.3073 2.45933 61.0183 3.638 61.0183C4.40867 61.0183 5.38333 61.194 6.562 61.5453L6.392 62.7013C4.862 62.044 3.553 61.7153 2.465 61.7153C1.87567 61.9987 1.581 62.486 1.581 63.1773Z" fill="#3F582C"/>
<path d="M19.4083 64.1463C19.4083 65.2343 19.006 66.0617 18.2013 66.6283C17.408 67.1837 16.3256 67.4613 14.9543 67.4613H13.4923V72.4763H11.8433V61.2223H15.4983C16.643 61.2223 17.578 61.483 18.3033 62.0043C19.04 62.5257 19.4083 63.2397 19.4083 64.1463ZM13.4923 66.9683H15.0053C15.538 66.9683 15.9913 66.8663 16.3653 66.6623C16.7506 66.4583 17.0283 66.1977 17.1983 65.8803C17.5043 65.3137 17.6573 64.764 17.6573 64.2313C17.6573 63.9707 17.5893 63.659 17.4533 63.2963C17.1813 62.5483 16.6203 62.061 15.7703 61.8343C14.9543 61.8343 14.195 61.9307 13.4923 62.1233V66.9683Z" fill="#3F582C"/>
<path d="M21.0399 72.4763L26.0889 60.9503H26.3439L31.3929 72.4763H29.5399L28.2649 69.4163H23.2159L21.9579 72.4763H21.0399ZM23.4709 68.7703H27.9929L25.7489 63.2623L23.4709 68.7703Z" fill="#3F582C"/>
<path d="M41.4213 72.4763V61.2223H44.6343C45.9376 61.2223 46.9746 61.4433 47.7453 61.8853C48.516 62.3273 48.9013 62.9903 48.9013 63.8743C48.9013 64.4977 48.6803 65.0417 48.2383 65.5063C47.8076 65.9597 47.2013 66.3053 46.4193 66.5433C47.4506 66.736 48.227 67.0873 48.7483 67.5973C49.281 68.096 49.5473 68.6457 49.5473 69.2463C49.5473 69.847 49.3943 70.3627 49.0883 70.7933C48.7823 71.2127 48.3913 71.5357 47.9153 71.7623C46.952 72.2383 45.966 72.4763 44.9573 72.4763H41.4213ZM43.0703 66.3733H44.2943C45.3256 66.3733 46.0623 66.1467 46.5043 65.6933C46.9576 65.2287 47.1843 64.6507 47.1843 63.9593C47.1843 63.4947 47.0256 63.0753 46.7083 62.7013C46.4023 62.316 45.9263 62.027 45.2803 61.8343C44.5096 61.8343 43.773 61.9477 43.0703 62.1743V66.3733ZM43.0703 66.8663V71.7113C43.433 71.8247 43.994 71.8813 44.7533 71.8813C45.5126 71.8813 46.187 71.6717 46.7763 71.2523C47.3656 70.833 47.6603 70.2493 47.6603 69.5013C47.6603 68.7533 47.3373 68.13 46.6913 67.6313C46.0453 67.1213 45.269 66.8663 44.3623 66.8663H43.0703Z" fill="#3F582C"/>
<path d="M54.4017 72.4763V61.2223H56.0677V71.5583C56.7591 71.7623 57.3144 71.8643 57.7337 71.8643L60.8107 71.3373L60.6067 72.4763H54.4017Z" fill="#3F582C"/>
<path d="M73.0899 61.2223V68.1243C73.0899 69.1783 72.9766 69.9717 72.7499 70.5043C72.6479 70.7423 72.4836 71.0143 72.2569 71.3203C72.0416 71.615 71.7866 71.853 71.4919 72.0343C70.7439 72.465 69.8089 72.6803 68.6869 72.6803C65.8762 72.6803 64.4709 71.2353 64.4709 68.3453V61.2223H66.2049V68.4813C66.2049 68.81 66.2106 69.0763 66.2219 69.2803C66.2332 69.4843 66.2899 69.7733 66.3919 70.1473C66.5052 70.5213 66.6526 70.8217 66.8339 71.0483C67.0266 71.275 67.3212 71.479 67.7179 71.6603C68.1259 71.8417 68.6076 71.9323 69.1629 71.9323C71.2822 71.9323 72.3419 70.799 72.3419 68.5323V61.2223H73.0899Z" fill="#3F582C"/>
<path d="M79.1628 63.1773C79.1628 63.676 79.3554 64.1407 79.7408 64.5713C80.1374 64.9907 80.6134 65.3647 81.1688 65.6933C81.7354 66.0107 82.2964 66.3393 82.8518 66.6793C83.4071 67.008 83.8774 67.416 84.2628 67.9033C84.6594 68.3907 84.8578 68.929 84.8578 69.5183C84.8578 70.4477 84.5121 71.207 83.8208 71.7963C83.1408 72.3857 82.2171 72.6803 81.0498 72.6803C79.8824 72.6803 78.7264 72.4593 77.5818 72.0173V71.2183C78.7378 71.7963 79.7181 72.0853 80.5228 72.0853C81.3388 72.0853 81.9734 71.887 82.4268 71.4903C82.8801 71.0937 83.1068 70.544 83.1068 69.8413C83.1068 69.3653 82.9198 68.9347 82.5458 68.5493C82.1718 68.1527 81.7184 67.8127 81.1858 67.5293C80.6531 67.2347 80.1204 66.9343 79.5878 66.6283C79.0551 66.3223 78.6018 65.937 78.2278 65.4723C77.8538 64.9963 77.6668 64.424 77.6668 63.7553C77.6668 63.0867 77.9614 62.4633 78.5508 61.8853C79.1514 61.3073 80.0411 61.0183 81.2198 61.0183C81.9904 61.0183 82.9651 61.194 84.1438 61.5453L83.9738 62.7013C82.4438 62.044 81.1348 61.7153 80.0468 61.7153C79.4574 61.9987 79.1628 62.486 79.1628 63.1773Z" fill="#3F582C"/>
<path d="M91.0741 66.9003V72.4763H89.425V61.2223H91.0741V66.2543H96.2251V61.2223H97.8741V72.4763H96.2251V66.9003H91.0741Z" fill="#3F582C"/>
<g filter="url(#filter0_d_1002_375)">
<path d="M58.8719 31.7208C58.8719 31.7208 58.866 31.7053 58.8541 31.6742C58.86 31.6897 58.866 31.7053 58.8719 31.7208Z" fill="#3F582C" stroke="#3F582C" stroke-width="0.5"/>
<path d="M31.8523 31.8489C32.7103 31.7485 33.571 31.6711 34.4372 31.6281C35.7077 31.5764 36.9892 31.5793 38.2679 31.717C38.2652 31.717 36.3677 31.2953 31.8523 31.8489Z" fill="#3F582C" stroke="#3F582C" stroke-width="0.5"/>
<path d="M21.3255 47.9118C21.3392 51.873 23.9242 54.727 27.6091 54.8475C29.677 54.9163 31.8275 54.9479 34.1842 54.9479C35.3997 54.9479 36.6564 54.9393 38.0094 54.9221V53.7604C36.5932 53.769 35.1109 53.7776 33.6397 53.7776C31.6405 53.7776 29.842 53.7661 28.1398 53.7403C24.6639 53.6887 22.4172 51.2879 22.4144 47.6221C22.4117 44.4411 22.4117 41.2573 22.4144 38.0591C22.0597 37.8325 21.6857 37.5973 21.3007 37.3621C21.3062 40.6922 21.3145 44.1887 21.3255 47.9118Z" fill="#3F582C" stroke="#3F582C" stroke-width="0.5"/>
<path d="M75.7662 36.9893C75.3922 37.3593 75.0237 37.7351 74.6689 38.1022C74.6689 41.1742 74.6717 44.2462 74.6662 47.3182C74.6607 51.331 72.3507 53.7376 68.4871 53.7605C66.9224 53.7691 65.3604 53.772 63.7957 53.772C61.9587 53.772 60.009 53.7662 57.9933 53.7519L59.2748 54.8906C60.7652 54.8935 60.9742 54.8935 62.4619 54.8935C64.4694 54.8935 66.4769 54.8935 68.4981 54.8906C73.096 54.8878 75.7442 52.1342 75.7607 47.3383C75.7717 44.3409 75.7689 41.3205 75.7662 38.3747C75.7662 37.9158 75.7662 37.454 75.7662 36.9893Z" fill="#3F582C" stroke="#3F582C" stroke-width="0.5"/>
<path d="M75.7716 30.5239V30.4637C75.7798 27.4892 75.7881 24.4172 75.7523 21.3968C75.7083 17.6163 74.2041 14.8971 71.1462 13.0786L66.8288 10.5114C62.3519 7.84674 57.721 5.09026 53.1313 2.37681C51.5886 1.46467 50.0321 1 48.5114 1C46.9907 1 45.4425 1.4618 43.908 2.3682C37.3384 6.25768 31.4123 9.78861 25.7859 13.1618C22.8462 14.9258 21.3447 17.5963 21.3282 21.1014C21.3117 24.9191 21.3007 28.8402 21.3007 32.9964C21.6747 32.8788 22.046 32.7669 22.4172 32.6579C22.4172 28.9664 22.4144 25.2289 22.4034 21.5173C22.3952 18.2043 23.7894 15.6917 26.5531 14.051C27.8841 13.2622 29.2123 12.4705 30.5433 11.6817C35.0174 9.0285 39.6456 6.28349 44.1885 3.53275C45.6515 2.6493 47.0649 2.21905 48.5142 2.21905C49.9606 2.21905 51.3713 2.64643 52.8288 3.52988C57.7045 6.48141 62.6626 9.4186 67.4613 12.2583L70.4697 14.0395C73.2609 15.6945 74.6744 18.2531 74.6744 21.6435C74.6744 24.552 74.6744 27.4576 74.6744 30.3661V31.6368C74.6744 31.8405 74.6744 32.047 74.6744 32.2506C75.0374 32.3424 75.4031 32.4399 75.7716 32.5432C75.7688 31.8691 75.7688 31.198 75.7716 30.5239Z" fill="#3F582C" stroke="#3F582C" stroke-width="0.5"/>
<path d="M76.4041 33.8655C74.8889 33.4094 73.3819 33.0452 71.8529 32.7182C70.7557 32.483 69.653 32.2793 68.5475 32.1043C66.991 31.8663 62.6791 31.3069 58.8704 31.7171C58.8649 31.7028 58.8594 31.6884 58.8539 31.6741C58.7109 31.2897 57.5972 28.3784 55.4495 24.9191C55.2103 24.5405 54.9683 24.1619 54.7208 23.789C53.8326 22.4552 52.8783 21.1731 51.8938 19.9196C50.9039 18.6661 49.8946 17.4499 48.8112 16.2567L48.3079 15.7031L47.8184 16.2711C46.7624 17.4958 45.7835 18.7436 44.8237 20.0286C43.9685 21.1817 43.1435 22.3606 42.3625 23.571C41.7218 24.5921 39.4888 28.2607 38.2624 31.7142C36.9837 31.5766 35.7049 31.5737 34.4317 31.6253C33.5655 31.6655 32.7047 31.7429 31.8468 31.8462C30.667 31.9896 29.3086 32.2019 27.7603 32.5059C26.8969 32.678 26.0389 32.8673 25.1836 33.0767C23.6657 33.4467 22.167 33.854 20.6655 34.356L20 34.5769L20.2612 35.2595C20.8442 36.7826 21.4822 38.2483 22.1587 39.7112C22.8379 41.1683 23.5584 42.6054 24.3449 44.0108C25.1341 45.4135 25.9784 46.7845 26.9079 48.104C27.3808 48.758 27.8566 49.4091 28.3818 50.0286C28.6348 50.3442 28.9126 50.6396 29.1793 50.9465C29.4626 51.2391 29.7348 51.5403 30.0373 51.8156C30.6203 52.3864 31.2638 52.9027 31.954 53.3559C32.295 53.5911 32.6662 53.7833 33.0347 53.9755C33.4115 54.139 33.7855 54.3139 34.1787 54.4373C34.9569 54.7012 35.7682 54.8733 36.5877 54.9306C37.4071 54.9851 38.2321 54.9249 39.0324 54.7643C40.6383 54.4459 42.1288 53.7288 43.4598 52.8253C44.1252 52.3692 44.755 51.8615 45.349 51.3165C45.943 50.7629 46.4985 50.1979 47.0182 49.5353L47.3977 49.0505L46.8587 48.8039C45.4727 48.1728 44.0043 47.734 42.511 47.5274C41.0178 47.3324 39.4998 47.3439 38.0259 47.5934L37.4731 47.6881C37.2889 47.7254 37.1074 47.7684 36.9259 47.8085C36.5602 47.8831 36.2027 47.995 35.8424 48.0954C35.4877 48.2101 35.1329 48.3306 34.7837 48.4597C34.4372 48.6002 34.088 48.7293 33.7525 48.8928C33.0677 49.1939 32.4187 49.5496 31.7478 49.8565C31.3353 50.0458 30.9118 50.2151 30.48 50.3528C30.3645 50.2323 30.2518 50.1089 30.1335 49.9885C29.8833 49.6988 29.6248 49.4205 29.3856 49.1194C28.8933 48.5314 28.4396 47.9032 27.9886 47.2722C27.1031 45.9986 26.2891 44.6591 25.5246 43.288C24.1222 40.7639 22.8572 38.1221 21.7655 35.4374C24.4439 34.5797 27.1994 33.8598 29.9658 33.3492C31.47 33.0824 32.9825 32.8587 34.4977 32.7411C35.6554 32.6608 36.8187 32.6264 37.9681 32.701C37.9599 32.7296 37.9516 32.7554 37.9461 32.7841C37.8306 33.18 37.7509 33.593 37.6629 33.9974C37.5996 34.4105 37.5199 34.8235 37.4924 35.2452C37.4456 35.664 37.4484 36.0942 37.4511 36.5159C37.4759 36.9346 37.4979 37.3534 37.5666 37.7665C37.6876 38.5954 37.8801 39.4186 38.1936 40.1931C38.5016 40.9704 38.9031 41.7047 39.3898 42.3673C40.3688 43.6925 41.6558 44.7222 43.0473 45.4622C44.447 46.1965 45.9485 46.6927 47.4802 46.905C46.7267 46.7329 45.9925 46.4776 45.283 46.1764C44.5735 45.8753 43.8805 45.5282 43.2315 45.1152C41.9308 44.2948 40.7648 43.245 39.9343 41.9542C39.5163 41.3146 39.1754 40.6233 38.9279 39.8976C38.6721 39.1748 38.5319 38.4118 38.4576 37.646C38.4109 37.2645 38.4136 36.8773 38.3999 36.49C38.4109 36.1085 38.4191 35.7299 38.4769 35.3513C38.5126 34.9727 38.5979 34.5941 38.6694 34.2154C38.7656 33.8397 38.8481 33.4639 38.9719 33.0939C39.0021 32.9964 39.0351 32.8989 39.0681 32.8013C39.4283 32.8415 39.7803 32.9103 40.1351 32.9734C40.4953 33.0624 40.8638 33.1341 41.2131 33.2574C41.5706 33.3607 41.906 33.5098 42.247 33.6561C42.5825 33.8253 42.9208 33.9888 43.237 34.1925C44.5267 34.9641 45.6295 36.0655 46.4022 37.4022C47.1777 38.7388 47.6149 40.2877 47.7854 41.8653C47.9422 43.4458 47.8844 45.0693 47.5599 46.644C47.9917 45.0979 48.1732 43.4659 48.0962 41.8395C48.0192 40.216 47.6479 38.5753 46.8889 37.1125C46.5122 36.381 46.042 35.6984 45.492 35.0903C44.9447 34.4765 44.3067 33.9602 43.6358 33.5098C43.303 33.2775 42.9483 33.0882 42.5935 32.8903C42.2278 32.7153 41.8593 32.5317 41.4771 32.4055C41.1003 32.2564 40.7098 32.1617 40.3248 32.0498C40.0168 31.9839 39.7088 31.9093 39.3981 31.8548C40.3441 29.3479 41.6998 26.9815 43.171 24.7241C44.7495 22.3118 46.4875 19.9798 48.3354 17.7942C50.2356 19.9196 52.0286 22.1942 53.6676 24.5491C55.2625 26.8553 56.7365 29.2819 57.7567 31.8749C57.3992 31.938 57.0445 32.0355 56.6925 32.1215C56.3102 32.242 55.9225 32.3481 55.5485 32.5088C55.169 32.6465 54.8033 32.8386 54.4458 33.0251C54.0993 33.2316 53.7473 33.4324 53.4201 33.6733C52.7601 34.1437 52.1358 34.6772 51.6051 35.3054C51.0744 35.9307 50.6206 36.6248 50.2631 37.3678C49.5426 38.8536 49.2154 40.5029 49.1796 42.1292C49.1466 43.7584 49.3721 45.3819 49.8424 46.9165C49.4766 45.3504 49.3776 43.7297 49.4931 42.1464C49.6251 40.5631 50.0184 39.0027 50.7581 37.646C51.4951 36.2864 52.5703 35.1563 53.8381 34.3474C54.1488 34.1351 54.4843 33.963 54.8143 33.7823C55.1525 33.6246 55.4825 33.4668 55.8373 33.3521C56.1838 33.2173 56.5495 33.1341 56.907 33.0365C57.2727 32.962 57.6385 32.8788 58.0097 32.8272C58.04 32.8214 58.0702 32.8186 58.1005 32.8128C58.3452 33.527 58.5295 34.2585 58.645 34.9956C58.7137 35.3742 58.7329 35.75 58.7604 36.1286C58.7577 36.5101 58.7715 36.8945 58.733 37.276C58.678 38.0389 58.535 38.7962 58.2985 39.5247C58.0592 40.2504 57.7265 40.9446 57.3222 41.5957C56.5165 42.9037 55.4028 44.008 54.1653 44.923C53.5438 45.379 52.8866 45.7892 52.2073 46.1564C51.5281 46.5206 50.8269 46.8534 50.0954 47.1087C51.5941 46.7243 53.0351 46.0847 54.3715 45.25C55.7025 44.4095 56.9235 43.3282 57.8722 41.9887C58.3425 41.3203 58.7357 40.5832 59.0327 39.8058C59.3269 39.0257 59.5194 38.2024 59.6212 37.3706C59.6789 36.9547 59.6899 36.5359 59.7064 36.1143C59.6927 35.6926 59.6817 35.2653 59.6212 34.8493C59.5304 34.1093 59.3764 33.3865 59.1729 32.6809C60.2839 32.5833 61.4114 32.5862 62.5334 32.6321C64.0513 32.7067 65.5693 32.8845 67.079 33.1083C69.8592 33.5356 72.6312 34.1782 75.3316 34.9583C74.3114 37.6718 73.1179 40.3508 71.7814 42.9151C71.0554 44.3092 70.2772 45.6687 69.4247 46.9681C68.9902 47.6106 68.553 48.2531 68.0773 48.8526C67.8463 49.1624 67.5933 49.4464 67.3513 49.7447C67.2385 49.868 67.1285 49.9942 67.0158 50.1204C66.5785 49.9942 66.1523 49.8393 65.7343 49.6615C65.0551 49.3747 64.3978 49.0391 63.7048 48.7551C63.3638 48.6002 63.0119 48.4826 62.6626 48.3507C62.3106 48.2302 61.9531 48.1183 61.5956 48.0151C61.2326 47.9261 60.8724 47.8229 60.5067 47.7598C60.3224 47.7254 60.1409 47.6852 59.9567 47.6536L59.4012 47.5733C57.919 47.3668 56.4037 47.3984 54.916 47.6364C53.4283 47.8831 51.9736 48.365 50.6041 49.0362L50.0706 49.2972L50.4639 49.7705C51.0029 50.4187 51.5721 50.9666 52.1798 51.503C52.7903 52.0307 53.4311 52.5184 54.1075 52.9572C55.4633 53.8235 56.9702 54.4975 58.5844 54.77C59.3902 54.9048 60.2152 54.9421 61.0347 54.8647C61.8541 54.7844 62.6599 54.5893 63.4299 54.3025C63.8203 54.1677 64.1888 53.9841 64.5601 53.8091C64.9231 53.6026 65.2916 53.4018 65.6243 53.158C66.3035 52.6847 66.9333 52.1483 67.4998 51.5632C67.794 51.2792 68.058 50.9695 68.333 50.6683C68.5915 50.3556 68.8637 50.0516 69.1057 49.7275C69.6117 49.0936 70.0737 48.4281 70.5275 47.7626C71.4212 46.4174 72.2297 45.0205 72.9804 43.5978C73.7284 42.1722 74.4104 40.7122 75.0511 39.2379C75.6891 37.7578 76.2886 36.2749 76.8303 34.7346L77.0723 34.0462L76.4041 33.8655ZM31.8028 50.0172C32.5012 49.7647 33.175 49.4406 33.8597 49.1882C35.2264 48.6576 36.6537 48.3162 38.0919 48.1527C39.5301 47.9835 40.9848 48.0581 42.3983 48.2933C43.6055 48.5084 44.7797 48.887 45.899 49.3947C45.525 49.7934 45.118 50.1835 44.7055 50.5421C44.1308 51.0383 43.5258 51.5001 42.8933 51.9074C41.6311 52.7191 40.2478 53.3158 38.8206 53.571C38.1084 53.7001 37.3851 53.7374 36.6674 53.68C35.9524 53.6169 35.2457 53.4563 34.5664 53.2096C34.2227 53.0978 33.8955 52.9343 33.5655 52.7851C33.252 52.6101 32.933 52.4438 32.636 52.2287C32.031 51.8185 31.459 51.3366 30.92 50.8088C30.7825 50.6826 30.6533 50.5478 30.524 50.413C30.9585 50.3069 31.3848 50.1721 31.8028 50.0172ZM66.5868 50.6052C66.0616 51.1502 65.5033 51.6464 64.9093 52.0738C64.6151 52.2975 64.3043 52.4725 63.9936 52.656C63.6663 52.8138 63.3446 52.9859 63.0036 53.1092C62.3299 53.3731 61.6286 53.5567 60.9164 53.6399C60.2014 53.7202 59.4782 53.7001 58.7632 53.594C57.3277 53.3817 55.9308 52.8224 54.6465 52.048C54.003 51.6579 53.3871 51.2161 52.7986 50.7371C52.3778 50.39 51.9598 50.0114 51.5776 49.6242C52.6803 49.085 53.8463 48.6748 55.048 48.4252C56.456 48.1499 57.908 48.0323 59.3489 48.1613C60.7899 48.2818 62.2254 48.583 63.6086 49.0735C64.3016 49.3058 64.9836 49.6099 65.6876 49.8422C66.1083 49.9856 66.54 50.109 66.9745 50.2007C66.848 50.3384 66.7188 50.4761 66.5868 50.6052Z" fill="#3F582C" stroke="#3F582C" stroke-width="0.5"/>
</g>
<defs>
<filter id="filter0_d_1002_375" x="15.673" y="0.75" width="65.7244" height="62.4503" filterUnits="userSpaceOnUse" color-interpolation-filters="sRGB">
<feFlood flood-opacity="0" result="BackgroundImageFix"/>
<feColorMatrix in="SourceAlpha" type="matrix" values="0 0 0 0 0 0 0 0 0 0 0 0 0 0 0 0 0 0 127 0" result="hardAlpha"/>
<feOffset dy="4"/>
<feGaussianBlur stdDeviation="2"/>
<feComposite in2="hardAlpha" operator="out"/>
<feColorMatrix type="matrix" values="0 0 0 0 0 0 0 0 0 0 0 0 0 0 0 0 0 0 0.25 0"/>
<feBlend mode="normal" in2="BackgroundImageFix" result="effect1_dropShadow_1002_375"/>
<feBlend mode="normal" in="SourceGraphic" in2="effect1_dropShadow_1002_375" result="shape"/>
</filter>
</defs>
</svg>
