<svg xmlns="http://www.w3.org/2000/svg" xmlns:xlink="http://www.w3.org/1999/xlink" width="98" zoomAndPan="magnify" viewBox="0 0 73.5 54.749999" height="73" preserveAspectRatio="xMidYMid meet" version="1.0"><defs><g/><clipPath id="2ada8f677b"><path d="M 33 5.5 L 41 5.5 L 41 17 L 33 17 Z M 33 5.5 " clip-rule="nonzero"/></clipPath></defs><path fill="#90bf3f" d="M 42.59375 10.910156 C 43.449219 10.910156 44.140625 10.21875 44.140625 9.363281 C 44.140625 8.507812 43.449219 7.816406 42.59375 7.816406 C 41.738281 7.816406 41.046875 8.507812 41.046875 9.363281 C 41.046875 10.21875 41.738281 10.910156 42.59375 10.910156 Z M 42.59375 10.910156 " fill-opacity="1" fill-rule="nonzero"/><path fill="#90bf3f" d="M 30.875 10.910156 C 30.019531 10.910156 29.328125 10.21875 29.328125 9.363281 C 29.328125 8.507812 30.019531 7.816406 30.875 7.816406 C 31.730469 7.816406 32.421875 8.507812 32.421875 9.363281 C 32.421875 10.21875 31.730469 10.910156 30.875 10.910156 Z M 30.875 10.910156 " fill-opacity="1" fill-rule="nonzero"/><path fill="#90bf3f" d="M 49.582031 10.636719 C 49.582031 10.636719 45.308594 10.570312 41.660156 13.519531 C 41.769531 15.066406 41.617188 16.765625 41.046875 18.578125 C 42.546875 19.207031 43.824219 19.792969 44.914062 20.339844 C 49.671875 16.488281 49.582031 10.636719 49.582031 10.636719 Z M 49.582031 10.636719 " fill-opacity="1" fill-rule="nonzero"/><g clip-path="url(#2ada8f677b)"><path fill="#90bf3f" d="M 36.589844 15.347656 C 36.632812 15.347656 36.667969 15.347656 36.695312 15.347656 C 36.722656 15.347656 36.757812 15.347656 36.800781 15.347656 C 37.953125 15.347656 39.304688 15.734375 40.140625 16.71875 C 41.429688 10.050781 36.734375 5.503906 36.734375 5.503906 C 36.734375 5.503906 32.078125 10.015625 33.316406 16.640625 C 34.15625 15.714844 35.46875 15.347656 36.589844 15.347656 Z M 36.589844 15.347656 " fill-opacity="1" fill-rule="nonzero"/></g><path fill="#90bf3f" d="M 31.808594 13.519531 C 28.160156 10.570312 23.886719 10.636719 23.886719 10.636719 C 23.886719 10.636719 23.796875 16.410156 28.457031 20.261719 C 29.984375 19.472656 31.449219 18.800781 32.367188 18.390625 C 31.84375 16.648438 31.703125 15.011719 31.808594 13.519531 Z M 31.808594 13.519531 " fill-opacity="1" fill-rule="nonzero"/><path fill="#3b2610" d="M 39.601562 19.433594 C 39.59375 20.3125 39.449219 21.683594 38.695312 22.632812 L 38.695312 22.636719 C 38.261719 23.183594 37.625 23.59375 36.695312 23.6875 C 35.804688 23.597656 35.183594 23.21875 34.75 22.707031 C 33.886719 21.679688 33.773438 20.117188 33.789062 19.234375 C 33.796875 18.832031 33.832031 18.570312 33.832031 18.570312 C 34.167969 16.550781 36.695312 16.691406 36.695312 16.691406 C 36.695312 16.691406 39.21875 16.550781 39.554688 18.570312 C 39.554688 18.570312 39.601562 18.917969 39.601562 19.433594 Z M 39.601562 19.433594 " fill-opacity="1" fill-rule="nonzero"/><path fill="#3b2610" d="M 39.265625 24.855469 C 36.484375 24.695312 33.679688 26.464844 33.679688 26.464844 C 29.507812 28.507812 24.445312 27.039062 24.445312 27.039062 C 19.890625 25.65625 29.769531 21.011719 32.976562 19.589844 C 33 20.59375 33.199219 22.0625 34.050781 23.140625 C 34.09375 23.195312 34.140625 23.25 34.1875 23.300781 C 32.683594 24.382812 29.074219 25.074219 29.074219 25.074219 C 30.804688 26.34375 32.667969 25.292969 32.667969 25.292969 C 33.71875 24.691406 34.679688 24.378906 35.523438 24.246094 L 35.527344 24.246094 C 36.40625 24.105469 37.160156 24.160156 37.753906 24.285156 C 38.71875 24.484375 39.265625 24.855469 39.265625 24.855469 Z M 39.265625 24.855469 " fill-opacity="1" fill-rule="nonzero"/><path fill="#3b2610" d="M 48.746094 27.039062 C 48.746094 27.039062 43.609375 29.078125 39.441406 27.039062 C 39.441406 27.039062 36.980469 25.902344 32.167969 28.792969 C 32.167969 28.792969 36.539062 24.070312 40.378906 25.863281 C 40.378906 25.863281 43.601562 27.421875 44.113281 25.074219 C 44.113281 25.074219 40.707031 24.335938 39.25 23.242188 C 39.28125 23.210938 39.3125 23.175781 39.339844 23.140625 C 40.144531 22.125 40.367188 20.757812 40.40625 19.761719 C 43.441406 21.03125 53.113281 25.347656 48.746094 27.039062 Z M 48.746094 27.039062 " fill-opacity="1" fill-rule="nonzero"/><g fill="#3b2610" fill-opacity="1"><g transform="translate(1.268575, 39.10881)"><g><path d="M 3.328125 -5.359375 L 3.328125 -0.59375 C 3.335938 -0.445312 3.390625 -0.320312 3.484375 -0.21875 C 3.585938 -0.125 3.707031 -0.078125 3.84375 -0.078125 L 3.953125 -0.078125 L 3.953125 0 L 1.484375 0 L 1.484375 -0.078125 L 1.59375 -0.078125 C 1.726562 -0.078125 1.84375 -0.125 1.9375 -0.21875 C 2.039062 -0.320312 2.097656 -0.441406 2.109375 -0.578125 L 2.109375 -5.359375 L 1.015625 -5.359375 C 0.765625 -5.359375 0.566406 -5.28125 0.421875 -5.125 C 0.273438 -4.976562 0.203125 -4.78125 0.203125 -4.53125 L 0.203125 -4.4375 L 0.109375 -4.4375 L 0.109375 -5.859375 C 0.335938 -5.765625 0.660156 -5.710938 1.078125 -5.703125 L 4.359375 -5.703125 C 4.523438 -5.703125 4.707031 -5.71875 4.90625 -5.75 C 5.101562 -5.78125 5.238281 -5.816406 5.3125 -5.859375 L 5.3125 -4.4375 L 5.234375 -4.4375 L 5.234375 -4.53125 C 5.234375 -4.863281 5.109375 -5.101562 4.859375 -5.25 C 4.734375 -5.320312 4.585938 -5.359375 4.421875 -5.359375 Z M 3.328125 -5.359375 "/></g></g></g><g fill="#3b2610" fill-opacity="1"><g transform="translate(6.690288, 39.10881)"><g><path d="M 4.3125 -0.078125 C 4.445312 -0.078125 4.550781 -0.113281 4.625 -0.1875 C 4.75 -0.3125 4.816406 -0.445312 4.828125 -0.59375 L 4.828125 -2.65625 L 2.1875 -2.65625 L 2.1875 -0.59375 C 2.1875 -0.445312 2.238281 -0.320312 2.34375 -0.21875 C 2.445312 -0.125 2.566406 -0.078125 2.703125 -0.078125 L 2.8125 -0.078125 L 2.8125 0 L 0.34375 0 L 0.34375 -0.078125 L 0.453125 -0.078125 C 0.585938 -0.078125 0.703125 -0.125 0.796875 -0.21875 C 0.898438 -0.320312 0.957031 -0.445312 0.96875 -0.59375 L 0.96875 -5.109375 C 0.957031 -5.242188 0.898438 -5.359375 0.796875 -5.453125 C 0.703125 -5.554688 0.585938 -5.609375 0.453125 -5.609375 L 0.34375 -5.609375 L 0.34375 -5.703125 L 2.8125 -5.703125 L 2.8125 -5.609375 L 2.703125 -5.609375 C 2.566406 -5.609375 2.445312 -5.554688 2.34375 -5.453125 C 2.238281 -5.359375 2.1875 -5.242188 2.1875 -5.109375 L 2.1875 -3.015625 L 4.828125 -3.015625 L 4.828125 -5.109375 C 4.816406 -5.242188 4.757812 -5.359375 4.65625 -5.453125 C 4.5625 -5.554688 4.445312 -5.609375 4.3125 -5.609375 L 4.203125 -5.609375 L 4.203125 -5.703125 L 6.671875 -5.703125 L 6.671875 -5.609375 L 6.5625 -5.609375 C 6.425781 -5.609375 6.304688 -5.554688 6.203125 -5.453125 C 6.097656 -5.359375 6.046875 -5.242188 6.046875 -5.109375 L 6.046875 -0.59375 C 6.046875 -0.445312 6.097656 -0.320312 6.203125 -0.21875 C 6.304688 -0.125 6.425781 -0.078125 6.5625 -0.078125 L 6.671875 -0.078125 L 6.671875 0 L 4.203125 0 L 4.203125 -0.078125 Z M 4.3125 -0.078125 "/></g></g></g><g fill="#3b2610" fill-opacity="1"><g transform="translate(13.699437, 39.10881)"><g><path d="M 0.453125 -0.078125 C 0.585938 -0.078125 0.703125 -0.125 0.796875 -0.21875 C 0.898438 -0.320312 0.957031 -0.445312 0.96875 -0.59375 L 0.96875 -5.125 C 0.957031 -5.269531 0.914062 -5.375 0.84375 -5.4375 C 0.71875 -5.550781 0.585938 -5.609375 0.453125 -5.609375 L 0.34375 -5.609375 L 0.34375 -5.703125 L 3.453125 -5.703125 C 3.722656 -5.703125 3.941406 -5.722656 4.109375 -5.765625 C 4.285156 -5.804688 4.394531 -5.832031 4.4375 -5.84375 L 4.4375 -4.421875 L 4.359375 -4.421875 L 4.359375 -4.515625 C 4.359375 -4.847656 4.234375 -5.085938 3.984375 -5.234375 C 3.859375 -5.304688 3.71875 -5.34375 3.5625 -5.34375 L 2.1875 -5.34375 L 2.1875 -2.984375 L 3.265625 -2.984375 C 3.460938 -2.984375 3.625 -3.050781 3.75 -3.1875 C 3.882812 -3.320312 3.953125 -3.484375 3.953125 -3.671875 L 3.953125 -3.75 L 4.03125 -3.75 L 4.03125 -1.875 L 3.953125 -1.875 L 3.953125 -1.9375 C 3.953125 -2.132812 3.890625 -2.296875 3.765625 -2.421875 C 3.640625 -2.554688 3.476562 -2.628906 3.28125 -2.640625 L 2.1875 -2.640625 L 2.1875 -0.34375 L 3.25 -0.34375 C 3.644531 -0.34375 3.976562 -0.457031 4.25 -0.6875 C 4.519531 -0.914062 4.722656 -1.238281 4.859375 -1.65625 L 4.9375 -1.65625 L 4.5625 0 L 0.34375 0 L 0.34375 -0.078125 Z M 0.453125 -0.078125 "/></g></g></g><g fill="#3b2610" fill-opacity="1"><g transform="translate(18.836224, 39.10881)"><g/></g></g><g fill="#3b2610" fill-opacity="1"><g transform="translate(20.871399, 39.10881)"><g><path d="M 0.453125 -0.078125 C 0.585938 -0.078125 0.703125 -0.125 0.796875 -0.21875 C 0.898438 -0.320312 0.957031 -0.445312 0.96875 -0.59375 L 0.96875 -5.109375 C 0.957031 -5.242188 0.898438 -5.359375 0.796875 -5.453125 C 0.703125 -5.554688 0.585938 -5.609375 0.453125 -5.609375 L 0.34375 -5.609375 L 0.34375 -5.703125 L 2.8125 -5.703125 L 2.8125 -5.609375 L 2.703125 -5.609375 C 2.566406 -5.609375 2.445312 -5.554688 2.34375 -5.453125 C 2.238281 -5.359375 2.1875 -5.242188 2.1875 -5.109375 L 2.1875 -0.34375 L 3.25 -0.34375 C 3.644531 -0.34375 3.976562 -0.457031 4.25 -0.6875 C 4.519531 -0.914062 4.722656 -1.238281 4.859375 -1.65625 L 4.9375 -1.65625 L 4.5625 0 L 0.34375 0 L 0.34375 -0.078125 Z M 0.453125 -0.078125 "/></g></g></g><g fill="#3b2610" fill-opacity="1"><g transform="translate(25.886078, 39.10881)"><g><path d="M 0.453125 -0.078125 C 0.585938 -0.078125 0.703125 -0.125 0.796875 -0.21875 C 0.898438 -0.320312 0.957031 -0.445312 0.96875 -0.59375 L 0.96875 -5.109375 C 0.957031 -5.253906 0.898438 -5.375 0.796875 -5.46875 C 0.703125 -5.5625 0.585938 -5.609375 0.453125 -5.609375 L 0.34375 -5.609375 L 0.34375 -5.703125 L 2.8125 -5.703125 L 2.8125 -5.609375 L 2.703125 -5.609375 C 2.566406 -5.609375 2.445312 -5.5625 2.34375 -5.46875 C 2.238281 -5.375 2.1875 -5.253906 2.1875 -5.109375 L 2.1875 -0.59375 C 2.1875 -0.445312 2.238281 -0.320312 2.34375 -0.21875 C 2.445312 -0.125 2.566406 -0.078125 2.703125 -0.078125 L 2.8125 -0.078125 L 2.8125 0 L 0.34375 0 L 0.34375 -0.078125 Z M 0.453125 -0.078125 "/></g></g></g><g fill="#3b2610" fill-opacity="1"><g transform="translate(29.028395, 39.10881)"><g><path d="M 2.1875 -5.34375 L 2.1875 -2.984375 L 3.265625 -2.984375 C 3.460938 -2.984375 3.625 -3.046875 3.75 -3.171875 C 3.882812 -3.304688 3.953125 -3.472656 3.953125 -3.671875 L 3.953125 -3.75 L 4.03125 -3.75 L 4.03125 -1.875 L 3.953125 -1.875 L 3.953125 -1.9375 C 3.953125 -2.132812 3.890625 -2.296875 3.765625 -2.421875 C 3.640625 -2.554688 3.476562 -2.628906 3.28125 -2.640625 L 2.1875 -2.640625 L 2.1875 -0.59375 C 2.1875 -0.445312 2.238281 -0.320312 2.34375 -0.21875 C 2.445312 -0.125 2.566406 -0.078125 2.703125 -0.078125 L 2.8125 -0.078125 L 2.8125 0 L 0.34375 0 L 0.34375 -0.078125 L 0.453125 -0.078125 C 0.585938 -0.078125 0.703125 -0.125 0.796875 -0.21875 C 0.898438 -0.320312 0.957031 -0.445312 0.96875 -0.59375 L 0.96875 -5.125 C 0.96875 -5.3125 0.878906 -5.453125 0.703125 -5.546875 C 0.628906 -5.585938 0.546875 -5.609375 0.453125 -5.609375 L 0.34375 -5.609375 L 0.34375 -5.703125 L 3.453125 -5.703125 C 3.628906 -5.703125 3.816406 -5.71875 4.015625 -5.75 C 4.210938 -5.78125 4.351562 -5.8125 4.4375 -5.84375 L 4.4375 -4.46875 L 4.359375 -4.46875 L 4.359375 -4.546875 C 4.359375 -4.785156 4.285156 -4.976562 4.140625 -5.125 C 4.003906 -5.269531 3.816406 -5.34375 3.578125 -5.34375 Z M 2.1875 -5.34375 "/></g></g></g><g fill="#3b2610" fill-opacity="1"><g transform="translate(33.87212, 39.10881)"><g><path d="M 0.453125 -0.078125 C 0.585938 -0.078125 0.703125 -0.125 0.796875 -0.21875 C 0.898438 -0.320312 0.957031 -0.445312 0.96875 -0.59375 L 0.96875 -5.125 C 0.957031 -5.269531 0.914062 -5.375 0.84375 -5.4375 C 0.71875 -5.550781 0.585938 -5.609375 0.453125 -5.609375 L 0.34375 -5.609375 L 0.34375 -5.703125 L 3.453125 -5.703125 C 3.722656 -5.703125 3.941406 -5.722656 4.109375 -5.765625 C 4.285156 -5.804688 4.394531 -5.832031 4.4375 -5.84375 L 4.4375 -4.421875 L 4.359375 -4.421875 L 4.359375 -4.515625 C 4.359375 -4.847656 4.234375 -5.085938 3.984375 -5.234375 C 3.859375 -5.304688 3.71875 -5.34375 3.5625 -5.34375 L 2.1875 -5.34375 L 2.1875 -2.984375 L 3.265625 -2.984375 C 3.460938 -2.984375 3.625 -3.050781 3.75 -3.1875 C 3.882812 -3.320312 3.953125 -3.484375 3.953125 -3.671875 L 3.953125 -3.75 L 4.03125 -3.75 L 4.03125 -1.875 L 3.953125 -1.875 L 3.953125 -1.9375 C 3.953125 -2.132812 3.890625 -2.296875 3.765625 -2.421875 C 3.640625 -2.554688 3.476562 -2.628906 3.28125 -2.640625 L 2.1875 -2.640625 L 2.1875 -0.34375 L 3.25 -0.34375 C 3.644531 -0.34375 3.976562 -0.457031 4.25 -0.6875 C 4.519531 -0.914062 4.722656 -1.238281 4.859375 -1.65625 L 4.9375 -1.65625 L 4.5625 0 L 0.34375 0 L 0.34375 -0.078125 Z M 0.453125 -0.078125 "/></g></g></g><g fill="#3b2610" fill-opacity="1"><g transform="translate(39.008907, 39.10881)"><g/></g></g><g fill="#3b2610" fill-opacity="1"><g transform="translate(41.044082, 39.10881)"><g><path d="M 4.3125 -0.078125 C 4.445312 -0.078125 4.550781 -0.113281 4.625 -0.1875 C 4.75 -0.3125 4.816406 -0.445312 4.828125 -0.59375 L 4.828125 -2.65625 L 2.1875 -2.65625 L 2.1875 -0.59375 C 2.1875 -0.445312 2.238281 -0.320312 2.34375 -0.21875 C 2.445312 -0.125 2.566406 -0.078125 2.703125 -0.078125 L 2.8125 -0.078125 L 2.8125 0 L 0.34375 0 L 0.34375 -0.078125 L 0.453125 -0.078125 C 0.585938 -0.078125 0.703125 -0.125 0.796875 -0.21875 C 0.898438 -0.320312 0.957031 -0.445312 0.96875 -0.59375 L 0.96875 -5.109375 C 0.957031 -5.242188 0.898438 -5.359375 0.796875 -5.453125 C 0.703125 -5.554688 0.585938 -5.609375 0.453125 -5.609375 L 0.34375 -5.609375 L 0.34375 -5.703125 L 2.8125 -5.703125 L 2.8125 -5.609375 L 2.703125 -5.609375 C 2.566406 -5.609375 2.445312 -5.554688 2.34375 -5.453125 C 2.238281 -5.359375 2.1875 -5.242188 2.1875 -5.109375 L 2.1875 -3.015625 L 4.828125 -3.015625 L 4.828125 -5.109375 C 4.816406 -5.242188 4.757812 -5.359375 4.65625 -5.453125 C 4.5625 -5.554688 4.445312 -5.609375 4.3125 -5.609375 L 4.203125 -5.609375 L 4.203125 -5.703125 L 6.671875 -5.703125 L 6.671875 -5.609375 L 6.5625 -5.609375 C 6.425781 -5.609375 6.304688 -5.554688 6.203125 -5.453125 C 6.097656 -5.359375 6.046875 -5.242188 6.046875 -5.109375 L 6.046875 -0.59375 C 6.046875 -0.445312 6.097656 -0.320312 6.203125 -0.21875 C 6.304688 -0.125 6.425781 -0.078125 6.5625 -0.078125 L 6.671875 -0.078125 L 6.671875 0 L 4.203125 0 L 4.203125 -0.078125 Z M 4.3125 -0.078125 "/></g></g></g><g fill="#3b2610" fill-opacity="1"><g transform="translate(48.053231, 39.10881)"><g><path d="M 1.265625 -5.015625 C 1.847656 -5.546875 2.628906 -5.8125 3.609375 -5.8125 C 4.585938 -5.8125 5.363281 -5.546875 5.9375 -5.015625 C 6.519531 -4.484375 6.8125 -3.757812 6.8125 -2.84375 C 6.8125 -1.9375 6.519531 -1.21875 5.9375 -0.6875 C 5.363281 -0.15625 4.585938 0.109375 3.609375 0.109375 C 2.628906 0.109375 1.847656 -0.15625 1.265625 -0.6875 C 0.691406 -1.21875 0.40625 -1.9375 0.40625 -2.84375 C 0.40625 -3.757812 0.691406 -4.484375 1.265625 -5.015625 Z M 2.234375 -0.9375 C 2.566406 -0.46875 3.019531 -0.234375 3.59375 -0.234375 C 4.175781 -0.234375 4.632812 -0.46875 4.96875 -0.9375 C 5.300781 -1.40625 5.46875 -2.039062 5.46875 -2.84375 C 5.46875 -3.65625 5.300781 -4.296875 4.96875 -4.765625 C 4.632812 -5.234375 4.175781 -5.46875 3.59375 -5.46875 C 3.019531 -5.46875 2.566406 -5.234375 2.234375 -4.765625 C 1.898438 -4.296875 1.734375 -3.65625 1.734375 -2.84375 C 1.734375 -2.039062 1.898438 -1.40625 2.234375 -0.9375 Z M 2.234375 -0.9375 "/></g></g></g><g fill="#3b2610" fill-opacity="1"><g transform="translate(55.200773, 39.10881)"><g><path d="M 6.4375 -5.609375 L 6.296875 -5.609375 C 6.179688 -5.609375 6.082031 -5.570312 6 -5.5 C 5.914062 -5.425781 5.875 -5.335938 5.875 -5.234375 L 5.875 -2.0625 C 5.875 -1.394531 5.660156 -0.863281 5.234375 -0.46875 C 4.816406 -0.0820312 4.25 0.109375 3.53125 0.109375 C 2.664062 0.109375 2.003906 -0.078125 1.546875 -0.453125 C 1.097656 -0.835938 0.875 -1.367188 0.875 -2.046875 L 0.875 -5.203125 C 0.863281 -5.367188 0.789062 -5.488281 0.65625 -5.5625 C 0.582031 -5.59375 0.507812 -5.609375 0.4375 -5.609375 L 0.3125 -5.609375 L 0.3125 -5.703125 L 2.65625 -5.703125 L 2.65625 -5.609375 L 2.53125 -5.609375 C 2.40625 -5.609375 2.300781 -5.570312 2.21875 -5.5 C 2.132812 -5.425781 2.09375 -5.332031 2.09375 -5.21875 L 2.09375 -2.109375 C 2.09375 -1.535156 2.234375 -1.082031 2.515625 -0.75 C 2.796875 -0.414062 3.179688 -0.25 3.671875 -0.25 C 4.171875 -0.25 4.5625 -0.40625 4.84375 -0.71875 C 5.132812 -1.039062 5.285156 -1.472656 5.296875 -2.015625 L 5.296875 -5.21875 C 5.285156 -5.382812 5.210938 -5.5 5.078125 -5.5625 C 5.003906 -5.59375 4.929688 -5.609375 4.859375 -5.609375 L 4.734375 -5.609375 L 4.734375 -5.703125 L 6.4375 -5.703125 Z M 6.4375 -5.609375 "/></g></g></g><g fill="#3b2610" fill-opacity="1"><g transform="translate(61.884298, 39.10881)"><g><path d="M 0.40625 -0.75 C 0.40625 -1.144531 0.488281 -1.484375 0.65625 -1.765625 L 0.734375 -1.765625 C 0.722656 -1.710938 0.71875 -1.664062 0.71875 -1.625 C 0.71875 -1.25 0.851562 -0.921875 1.125 -0.640625 C 1.394531 -0.367188 1.765625 -0.234375 2.234375 -0.234375 C 2.597656 -0.234375 2.878906 -0.316406 3.078125 -0.484375 C 3.285156 -0.660156 3.390625 -0.878906 3.390625 -1.140625 C 3.390625 -1.304688 3.335938 -1.453125 3.234375 -1.578125 C 3.128906 -1.703125 2.960938 -1.835938 2.734375 -1.984375 L 1.3125 -2.921875 C 0.789062 -3.273438 0.53125 -3.707031 0.53125 -4.21875 C 0.53125 -4.28125 0.535156 -4.335938 0.546875 -4.390625 C 0.578125 -4.816406 0.742188 -5.160156 1.046875 -5.421875 C 1.347656 -5.679688 1.75 -5.8125 2.25 -5.8125 C 2.550781 -5.8125 2.921875 -5.785156 3.359375 -5.734375 L 3.875 -5.734375 L 3.765625 -4.53125 L 3.6875 -4.53125 C 3.6875 -4.8125 3.582031 -5.035156 3.375 -5.203125 C 3.164062 -5.378906 2.890625 -5.46875 2.546875 -5.46875 C 2.117188 -5.46875 1.8125 -5.335938 1.625 -5.078125 C 1.519531 -4.953125 1.46875 -4.828125 1.46875 -4.703125 C 1.46875 -4.578125 1.492188 -4.472656 1.546875 -4.390625 C 1.617188 -4.242188 1.785156 -4.09375 2.046875 -3.9375 L 3.59375 -2.921875 C 4.082031 -2.597656 4.328125 -2.179688 4.328125 -1.671875 C 4.328125 -1.097656 4.128906 -0.65625 3.734375 -0.34375 C 3.347656 -0.0390625 2.828125 0.109375 2.171875 0.109375 C 1.804688 0.109375 1.46875 0.0664062 1.15625 -0.015625 C 0.84375 -0.109375 0.613281 -0.226562 0.46875 -0.375 C 0.425781 -0.476562 0.40625 -0.601562 0.40625 -0.75 Z M 0.40625 -0.75 "/></g></g></g><g fill="#3b2610" fill-opacity="1"><g transform="translate(66.589631, 39.10881)"><g><path d="M 0.453125 -0.078125 C 0.585938 -0.078125 0.703125 -0.125 0.796875 -0.21875 C 0.898438 -0.320312 0.957031 -0.445312 0.96875 -0.59375 L 0.96875 -5.125 C 0.957031 -5.269531 0.914062 -5.375 0.84375 -5.4375 C 0.71875 -5.550781 0.585938 -5.609375 0.453125 -5.609375 L 0.34375 -5.609375 L 0.34375 -5.703125 L 3.453125 -5.703125 C 3.722656 -5.703125 3.941406 -5.722656 4.109375 -5.765625 C 4.285156 -5.804688 4.394531 -5.832031 4.4375 -5.84375 L 4.4375 -4.421875 L 4.359375 -4.421875 L 4.359375 -4.515625 C 4.359375 -4.847656 4.234375 -5.085938 3.984375 -5.234375 C 3.859375 -5.304688 3.71875 -5.34375 3.5625 -5.34375 L 2.1875 -5.34375 L 2.1875 -2.984375 L 3.265625 -2.984375 C 3.460938 -2.984375 3.625 -3.050781 3.75 -3.1875 C 3.882812 -3.320312 3.953125 -3.484375 3.953125 -3.671875 L 3.953125 -3.75 L 4.03125 -3.75 L 4.03125 -1.875 L 3.953125 -1.875 L 3.953125 -1.9375 C 3.953125 -2.132812 3.890625 -2.296875 3.765625 -2.421875 C 3.640625 -2.554688 3.476562 -2.628906 3.28125 -2.640625 L 2.1875 -2.640625 L 2.1875 -0.34375 L 3.25 -0.34375 C 3.644531 -0.34375 3.976562 -0.457031 4.25 -0.6875 C 4.519531 -0.914062 4.722656 -1.238281 4.859375 -1.65625 L 4.9375 -1.65625 L 4.5625 0 L 0.34375 0 L 0.34375 -0.078125 Z M 0.453125 -0.078125 "/></g></g></g><g fill="#3b2610" fill-opacity="1"><g transform="translate(26.614338, 47.999447)"><g><path d="M 0.40625 -0.75 C 0.40625 -1.144531 0.488281 -1.484375 0.65625 -1.765625 L 0.734375 -1.765625 C 0.722656 -1.710938 0.71875 -1.664062 0.71875 -1.625 C 0.71875 -1.25 0.851562 -0.921875 1.125 -0.640625 C 1.394531 -0.367188 1.765625 -0.234375 2.234375 -0.234375 C 2.597656 -0.234375 2.878906 -0.316406 3.078125 -0.484375 C 3.285156 -0.660156 3.390625 -0.878906 3.390625 -1.140625 C 3.390625 -1.304688 3.335938 -1.453125 3.234375 -1.578125 C 3.128906 -1.703125 2.960938 -1.835938 2.734375 -1.984375 L 1.3125 -2.921875 C 0.789062 -3.273438 0.53125 -3.707031 0.53125 -4.21875 C 0.53125 -4.28125 0.535156 -4.335938 0.546875 -4.390625 C 0.578125 -4.816406 0.742188 -5.160156 1.046875 -5.421875 C 1.347656 -5.679688 1.75 -5.8125 2.25 -5.8125 C 2.550781 -5.8125 2.921875 -5.785156 3.359375 -5.734375 L 3.875 -5.734375 L 3.765625 -4.53125 L 3.6875 -4.53125 C 3.6875 -4.8125 3.582031 -5.035156 3.375 -5.203125 C 3.164062 -5.378906 2.890625 -5.46875 2.546875 -5.46875 C 2.117188 -5.46875 1.8125 -5.335938 1.625 -5.078125 C 1.519531 -4.953125 1.46875 -4.828125 1.46875 -4.703125 C 1.46875 -4.578125 1.492188 -4.472656 1.546875 -4.390625 C 1.617188 -4.242188 1.785156 -4.09375 2.046875 -3.9375 L 3.59375 -2.921875 C 4.082031 -2.597656 4.328125 -2.179688 4.328125 -1.671875 C 4.328125 -1.097656 4.128906 -0.65625 3.734375 -0.34375 C 3.347656 -0.0390625 2.828125 0.109375 2.171875 0.109375 C 1.804688 0.109375 1.46875 0.0664062 1.15625 -0.015625 C 0.84375 -0.109375 0.613281 -0.226562 0.46875 -0.375 C 0.425781 -0.476562 0.40625 -0.601562 0.40625 -0.75 Z M 0.40625 -0.75 "/></g></g></g><g fill="#3b2610" fill-opacity="1"><g transform="translate(32.706517, 47.999447)"><g><path d="M 5.109375 -4.0625 C 5.109375 -3.820312 5.054688 -3.585938 4.953125 -3.359375 C 4.773438 -2.929688 4.4375 -2.640625 3.9375 -2.484375 C 3.789062 -2.429688 3.65625 -2.40625 3.53125 -2.40625 C 3.144531 -2.40625 2.796875 -2.503906 2.484375 -2.703125 L 2.484375 -2.796875 C 2.890625 -2.785156 3.21875 -2.914062 3.46875 -3.1875 C 3.6875 -3.425781 3.796875 -3.738281 3.796875 -4.125 C 3.796875 -4.519531 3.703125 -4.820312 3.515625 -5.03125 C 3.328125 -5.25 3.078125 -5.359375 2.765625 -5.359375 L 2.21875 -5.359375 L 2.21875 -0.59375 C 2.21875 -0.445312 2.269531 -0.320312 2.375 -0.21875 C 2.476562 -0.125 2.597656 -0.078125 2.734375 -0.078125 L 2.84375 -0.078125 L 2.84375 0 L 0.359375 0 L 0.359375 -0.078125 L 0.46875 -0.078125 C 0.613281 -0.078125 0.734375 -0.125 0.828125 -0.21875 C 0.929688 -0.320312 0.988281 -0.445312 1 -0.59375 L 1 -5.140625 C 1 -5.273438 0.945312 -5.382812 0.84375 -5.46875 C 0.738281 -5.5625 0.613281 -5.609375 0.46875 -5.609375 L 0.359375 -5.609375 L 0.359375 -5.703125 L 3.078125 -5.703125 C 3.742188 -5.703125 4.242188 -5.5625 4.578125 -5.28125 C 4.929688 -4.976562 5.109375 -4.570312 5.109375 -4.0625 Z M 5.109375 -4.0625 "/></g></g></g><g fill="#3b2610" fill-opacity="1"><g transform="translate(39.425835, 47.999447)"><g><path d="M 6.015625 -0.078125 L 6.09375 -0.078125 L 6.09375 0 L 3.484375 0 L 3.484375 -0.078125 L 3.5625 -0.078125 C 3.6875 -0.078125 3.773438 -0.113281 3.828125 -0.1875 C 3.890625 -0.257812 3.921875 -0.328125 3.921875 -0.390625 C 3.921875 -0.460938 3.90625 -0.53125 3.875 -0.59375 L 3.46875 -1.59375 L 1.578125 -1.59375 L 1.140625 -0.59375 C 1.117188 -0.519531 1.109375 -0.453125 1.109375 -0.390625 C 1.109375 -0.328125 1.132812 -0.257812 1.1875 -0.1875 C 1.25 -0.113281 1.34375 -0.078125 1.46875 -0.078125 L 1.53125 -0.078125 L 1.53125 0 L -0.21875 0 L -0.21875 -0.078125 L -0.140625 -0.078125 C -0.015625 -0.078125 0.109375 -0.113281 0.234375 -0.1875 C 0.359375 -0.269531 0.460938 -0.382812 0.546875 -0.53125 L 2.421875 -4.796875 C 2.679688 -5.328125 2.816406 -5.679688 2.828125 -5.859375 L 2.90625 -5.859375 L 5.328125 -0.546875 C 5.410156 -0.390625 5.507812 -0.269531 5.625 -0.1875 C 5.75 -0.113281 5.878906 -0.078125 6.015625 -0.078125 Z M 1.703125 -1.9375 L 3.34375 -1.9375 L 2.546875 -3.9375 Z M 1.703125 -1.9375 "/></g></g></g></svg>