<svg width="92" height="88" viewBox="0 0 92 88" fill="none" xmlns="http://www.w3.org/2000/svg">
<path d="M90.6016 66.559C90.4333 67.234 90.1264 67.7825 89.3713 67.9284C86.6355 68.1954 83.9046 68.0739 81.1822 67.788C76.7988 67.3298 72.5382 66.3161 68.3598 64.9003C63.3611 63.2062 58.6285 60.9595 54.1663 58.1568C52.293 56.9805 50.4387 55.7752 48.6658 54.4431C46.7163 52.9824 44.8097 51.4753 42.9961 49.849C42.2532 49.1821 41.5066 48.5209 40.6565 47.7586C40.6731 49.1356 40.6844 50.3411 40.7028 51.5452C40.7345 53.4918 40.7863 55.4392 40.8002 57.3845C40.8063 58.0559 40.4679 58.5609 39.8087 58.772C39.2037 58.9669 38.7127 58.7206 38.318 58.2619C38.0156 57.9117 37.9701 57.461 37.9603 57.0379C37.8798 53.1707 37.809 49.3016 37.7732 45.4328C37.7706 45.0082 37.6698 44.7139 37.3889 44.4192C34.6614 41.5761 32.222 38.481 29.6173 35.53C28.3437 34.0848 27.1651 32.555 25.7334 31.2525C24.8553 30.0633 23.7522 29.0806 22.6926 28.0664C19.593 25.0926 16.2361 22.4718 12.2699 20.7272C9.1701 19.3638 5.93233 18.7617 2.54478 19.0333C1.45976 19.1197 0.699914 18.5763 0.66294 17.7187C0.625239 16.8212 1.28514 16.2623 2.36585 16.1793C7.50005 15.7798 12.324 16.7973 16.7954 19.3655C20.4892 21.4865 23.6296 24.2944 26.5181 27.3969C26.9649 27.8773 27.4308 28.3413 27.8857 28.8126C27.9052 28.8586 27.9166 28.9138 27.9471 28.9525C30.5616 32.0965 33.1595 35.2565 35.8022 38.3797C37.1478 39.9676 38.5345 41.5244 39.9703 43.0287C44.2266 47.4869 48.9444 51.3946 54.0561 54.836C54.2157 54.9431 54.3641 55.0075 54.5496 54.9492C56.0683 54.4682 57.5832 53.9805 59.1044 53.5114C61.1333 52.8851 63.1284 52.1557 65.1989 51.6458C66.0368 51.4404 66.728 51.9904 66.8976 52.5456C67.1128 53.2489 66.5922 54.1191 65.8539 54.3465C63.2938 55.1375 60.7308 55.9266 58.1706 56.7176C58.0345 56.7607 57.8335 56.7322 57.8059 56.9254C57.7787 57.1086 57.9549 57.1748 58.0841 57.2431C59.1559 57.8197 60.212 58.4294 61.3061 58.9564C65.4752 60.9693 69.7776 62.622 74.287 63.7144C77.5514 64.5061 80.8432 65.0796 84.2043 65.1886C85.77 65.2381 87.3436 65.3984 88.8967 65.0354C89.5361 65.0434 90.0041 65.397 90.4419 65.8093C90.4986 66.0601 90.5501 66.3096 90.6016 66.559Z" fill="#558134"/>
<path d="M25.7369 31.257C27.1686 32.5595 28.3476 34.0917 29.6207 35.5345C32.2254 38.4855 34.6649 41.5806 37.3924 44.4237C37.6728 44.716 37.7735 45.0103 37.7766 45.4373C37.8124 49.3061 37.8828 53.1728 37.9637 57.0424C37.9735 57.4655 38.0191 57.9162 38.3214 58.2665C38.7162 58.7251 39.2072 58.9714 39.8121 58.7765C40.4689 58.5659 40.8073 58.061 40.8037 57.389C40.7893 55.4413 40.7379 53.4963 40.7063 51.5497C40.6854 50.3462 40.6766 49.1401 40.6599 47.7631C41.5119 48.5225 42.2567 49.1866 42.9995 49.8535C44.8132 51.4798 46.7197 52.9869 48.6693 54.4476C50.4441 55.7768 52.2989 56.9845 54.1698 58.1613C58.632 60.964 63.3641 63.2083 68.3632 64.9048C72.5417 66.3206 76.8003 67.3372 81.1856 67.7925C83.9075 68.076 86.6389 68.1999 89.3747 67.9329C85.8518 69.8629 82.2034 71.5237 78.4556 72.97C73.3569 74.9351 68.133 76.4385 62.7068 77.1559C54.9149 78.1889 47.2634 77.7451 39.9655 74.5799C31.5522 70.9297 25.5976 64.8464 22.4586 56.1689C20.2192 49.984 20.0453 43.7379 22.2731 37.4962C23.0777 35.227 24.2075 33.1282 25.7369 31.257Z" fill="#6E994D"/>
<path d="M88.902 65.0369C87.349 65.4 85.7754 65.2396 84.2097 65.1902C80.8486 65.0812 77.5591 64.5072 74.2923 63.716C69.7801 62.6217 65.4806 60.9708 61.3114 58.9579C60.2169 58.4286 59.1612 57.8213 58.0894 57.2447C57.9603 57.1763 57.7841 57.1102 57.8113 56.927C57.8389 56.7337 58.0394 56.7599 58.176 56.7192C60.7361 55.9282 63.2991 55.1391 65.8592 54.3481C66.5951 54.1212 67.1157 53.251 66.9029 52.5472C66.7338 51.9944 66.0421 51.4419 65.2042 51.6474C63.1362 52.1568 61.1411 52.8862 59.1097 53.513C57.5885 53.982 56.0718 54.4727 54.555 54.9508C54.367 55.0096 54.2211 54.9447 54.0614 54.8376C48.9502 51.3986 44.2295 47.4889 39.9757 43.0302C38.5398 41.526 37.1532 39.9691 35.8076 38.3813C33.1653 35.2605 30.5675 32.1005 27.9524 28.9541C27.9219 28.9154 27.911 28.8626 27.891 28.8142C31.3551 25.5209 35.4369 23.403 40.1361 22.5681C49.395 20.9247 58.5837 24.6724 63.9076 32.5464C65.8979 35.4891 67.0254 38.795 68.2517 42.083C70.8909 49.1507 74.8365 55.3511 80.7397 60.1796C82.8735 61.9273 85.1767 63.4176 87.7263 64.5019C88.1236 64.6699 88.5099 64.8578 88.902 65.0369Z" fill="#6E994D"/>
</svg>
